# xmcd CD Database Entry
#
# Track frame offsets:
# 150
# 9062
# 38496
# 60135
# 79202
# 99074
# 126751
# 154274
# 181011
#
# Disc length: 2533 seconds
#
# Revision: 2
# Processed by: cddbd v1.4b41PL1 Copyright (c) Steve Scherf et al.
# Submitted via: tcd 2.0b
#
DISCID=5009e309
DTITLE=Guillaume de Chassy - Rimes
DYEAR=1900
DGENRE=
TTITLE0=Prélude
TTITLE1=Choral
TTITLE2=Adèle
TTITLE3=Cinq You
TTITLE4=Louie Louie, por buleria
TTITLE5=Lune
TTITLE6=Bonobos
TTITLE7=Jannu
TTITLE8=Épilogue
EXTD=
EXTT0=
EXTT1=
EXTT2=
EXTT3=
EXTT4=
EXTT5=
EXTT6=
EXTT7=
EXTT8=
PLAYORDER=
